<svg width="24" height="24" viewBox="0 0 24 24" fill="none" xmlns="http://www.w3.org/2000/svg">
<path fill-rule="evenodd" clip-rule="evenodd" d="M6.524 4.794C8.74 6.456 11.124 9.826 12 11.634C12.875 9.826 15.26 6.456 17.476 4.794C19.076 3.595 21.666 2.667 21.666 5.62C21.666 6.21 21.328 10.573 21.129 11.281C20.439 13.744 17.925 14.372 15.688 13.991C19.598 14.656 20.592 16.858 18.444 19.059C14.364 23.239 12.581 18.01 12.124 16.67C12.039 16.424 12 16.31 12 16.407C12 16.309 11.96 16.424 11.876 16.67C11.419 18.01 9.635 23.24 5.556 19.06C3.407 16.858 4.402 14.656 8.312 13.992C6.075 14.372 3.56 13.744 2.87 11.282C2.671 10.572 2.333 6.209 2.333 5.62C2.333 2.667 4.924 3.595 6.523 4.794H6.524Z" fill="#0060DF"/>
</svg>
