<svg width="24" height="24" viewBox="0 0 24 24" fill="none" xmlns="http://www.w3.org/2000/svg">
<path d="M6.94389 5.06661C6.02806 5.15828 5.03722 5.39994 4.41222 5.68328C3.52139 6.09911 3.36306 6.40744 3.65472 7.23994C3.95472 8.10669 3.81306 9.16336 2.82131 13.4943C2.08964 16.7243 1.96548 17.3993 2.00714 17.9993C2.04048 18.391 2.08214 18.5243 2.24881 18.6578C2.43214 18.8069 2.52381 18.8153 3.65547 18.7653C6.49547 18.6236 7.03639 18.5819 7.21139 18.4819C7.41139 18.3736 7.41972 18.3153 7.57806 17.0169C7.84472 14.6268 9.06806 11.0543 10.1006 9.60511C10.984 8.37261 12.0665 7.83178 12.6824 8.31428C13.3324 8.83094 13.3157 9.61344 12.5741 11.7701C12.0074 13.4359 11.9157 13.7934 11.8166 14.7843C11.6916 16.001 11.9249 16.8585 12.6166 17.6244C13.3241 18.4078 14.3816 18.7986 15.8216 18.7986C17.1882 18.7986 18.295 18.4569 19.4692 17.6828C20.5442 16.9661 21.8259 15.5094 21.9759 14.826C22.0592 14.4843 21.9176 14.1102 21.6842 14.0185C21.3426 13.8935 21.1426 13.9852 20.5267 14.5435C19.8109 15.1935 19.4859 15.3343 18.8534 15.2843C18.0117 15.2177 17.645 14.7343 17.645 13.6852C17.645 12.936 17.72 12.561 18.1867 10.9209C18.845 8.64761 18.9617 7.61503 18.67 6.73169C18.195 5.25836 16.1883 4.61669 13.9649 5.23336C12.7574 5.57503 11.2666 6.44086 10.134 7.47336C9.81731 7.75669 9.56731 7.96503 9.56731 7.94003C9.56731 7.92336 9.62564 7.64836 9.70064 7.34003C9.98398 6.09086 9.86731 5.46669 9.30148 5.17503C8.97648 5.00836 7.96897 4.95836 6.94472 5.06669L6.94389 5.06661Z" fill="black"/>
</svg>
