<svg width="24" height="24" viewBox="0 0 24 24" fill="none" xmlns="http://www.w3.org/2000/svg">
<path d="M15.6 5.3L12.3 6.45L11.6 4.3C11.3 3.4 11.75 2.4 12.7 2.1C13.6 1.8 14.6 2.25 14.9 3.2L15.6 5.3ZM14.6 13.3L17.9 12.15L16.75 8.6L13.45 9.75L14.6 13.3ZM16.3 18.4C16.55 19.1 17.25 19.6 17.95 19.6C18.15 19.6 18.35 19.55 18.5 19.5C19.4 19.2 19.9 18.2 19.6 17.3L19 15.5L15.7 16.65L16.3 18.4Z" fill="#FFB300"/>
<path d="M8.6 7.75L5.3 8.9L4.6 6.8C4.3 5.9 4.75 4.9 5.7 4.6C6.6 4.3 7.6 4.75 7.9 5.7L8.6 7.75ZM9.3 20.9C9.55 21.6 10.25 22.1 10.95 22.1C11.15 22.1 11.35 22.05 11.5 22C12.4 21.7 12.9 20.7 12.6 19.8L12 17.95L8.7 19.1L9.3 20.9ZM9.7 11.1L6.4 12.25L7.55 15.8L10.85 14.65L9.7 11.1Z" fill="#00BFA5"/>
<path d="M16.7 8.65L15.6 5.35L17.65 4.65C18.55 4.35 19.55 4.8 19.85 5.75C20.15 6.65 19.7 7.65 18.75 7.95L16.7 8.65ZM13.4 9.8L12.3 6.5L8.6 7.8L9.7 11.1L13.4 9.8ZM3.2 9.65C2.3 9.95 1.8 10.95 2.1 11.85C2.35 12.6 3.05 13.05 3.75 13.05C3.95 13.05 4.15 13 4.3 12.95L6.35 12.25L5.25 8.95L3.2 9.65Z" fill="#00BCD4"/>
<path d="M7.55 15.75L8.65 19.05L6.3 19.85C6.1 19.9 5.9 19.95 5.75 19.95C5 19.95 4.35 19.5 4.1 18.75C3.8 17.85 4.25 16.85 5.2 16.55L7.55 15.75ZM21.85 12.65C21.55 11.75 20.55 11.25 19.65 11.55L17.9 12.15L19 15.5L20.8 14.9C21.7 14.55 22.2 13.55 21.85 12.65ZM10.85 14.6L11.95 17.9L15.65 16.6L14.55 13.3L10.85 14.6Z" fill="#E91E63"/>
<path d="M16.7 8.65L15.6 5.3L12.3 6.45L13.4 9.8L16.7 8.65Z" fill="#388E3C"/>
<path d="M8.6 7.75L5.3 8.9L6.4 12.25L9.7 11.1L8.6 7.75Z" fill="#00897B"/>
<path d="M14.6 13.3L15.7 16.65L19 15.5L17.9 12.15L14.6 13.3Z" fill="#BF360C"/>
<path d="M7.55 15.75L8.65 19.1L11.95 17.95L10.85 14.6L7.55 15.75Z" fill="#4E342E"/>
</svg>
