<svg width="24" height="24" viewBox="0 0 24 24" fill="none" xmlns="http://www.w3.org/2000/svg">
<path d="M14 6.4C12.5594 6.4 11.2 7.11563 10.4 8.275V16.4H19C20.6406 16.4 22 15.0406 22 13.4C22 11.7594 20.6406 10.4 19 10.4C18.8 10.4 18.6 10.4344 18.4 10.475C18.2 8.19531 16.3203 6.4 14 6.4ZM8.8 8.4C8.52031 8.4 8.24063 8.43438 8 8.475V16.4H8.8V8.4ZM9.2 8.4V16.4H10V8.6C9.75938 8.52031 9.47969 8.44063 9.2 8.4ZM7.6 8.6C7.32031 8.72031 7.04063 8.84063 6.8 9V16.4H7.6V8.6ZM6.4 9.325C6.07969 9.60469 5.8 9.9625 5.6 10.3625V16.4H6.4V9.325ZM4.6 10.8C4.52969 10.8047 4.45938 10.8172 4.4 10.8375V16.3625C4.52031 16.4031 4.67969 16.4 4.8 16.4H5.2V10.8375C5.07969 10.7969 4.92031 10.8 4.8 10.8C4.74063 10.8 4.67031 10.7953 4.6 10.8ZM4 10.925C3.72031 11.0047 3.44063 11.125 3.2 11.325V15.875C3.44063 16.0344 3.72031 16.1953 4 16.275V10.925ZM2.8 11.6375C2.32031 12.1578 2 12.8406 2 13.6C2 14.3594 2.32031 15.0422 2.8 15.5625V11.6375Z" fill="#FF5500"/>
</svg>
